<?xml version="1.0" standalone="no"?>
<!DOCTYPE svg PUBLIC "-//W3C//DTD SVG 20010904//EN"
 "http://www.w3.org/TR/2001/REC-SVG-20010904/DTD/svg10.dtd">
<svg version="1.0" xmlns="http://www.w3.org/2000/svg"
 width="512.000000pt" height="512.000000pt" viewBox="0 0 512.000000 512.000000"
 preserveAspectRatio="xMidYMid meet">

<g transform="translate(0.000000,512.000000) scale(0.100000,-0.100000)"
fill="#000000" stroke="none">
<path d="M2315 5109 c-800 -83 -1501 -518 -1927 -1196 -487 -774 -516 -1777
-75 -2578 200 -364 487 -676 841 -913 238 -159 600 -311 876 -366 214 -43 295
-51 530 -51 236 0 333 10 532 51 880 184 1615 842 1898 1702 92 278 125 491
125 802 0 301 -32 513 -116 775 -124 390 -330 728 -622 1024 -399 404 -893
653 -1462 737 -123 18 -478 26 -600 13z m-65 -674 l0 -85 -125 0 -125 0 0 -90
0 -90 125 0 126 0 -3 -87 -3 -88 -210 0 -210 0 -3 263 -2 262 215 0 215 0 0
-85z m500 10 l0 -75 -120 0 c-100 0 -120 -2 -120 -15 0 -12 20 -15 120 -15
l120 0 0 -175 0 -175 -210 0 -210 0 0 80 0 80 126 0 c96 0 125 3 122 13 -3 8
-40 13 -126 15 l-122 3 0 169 0 170 210 0 210 0 0 -75z m510 0 l0 -75 -125 0
c-104 0 -125 -2 -125 -15 0 -13 21 -15 125 -15 l125 0 0 -175 0 -175 -210 0
-210 0 0 80 0 80 120 0 c100 0 120 3 120 15 0 13 -20 15 -120 15 l-120 0 0
170 0 170 210 0 210 0 0 -75z m686 -752 c-10 -85 -246 -2743 -246 -2763 0 -13
-112 -47 -570 -174 l-570 -159 -570 159 c-416 115 -570 162 -570 172 0 20
-239 2705 -246 2770 l-6 52 1392 0 1392 0 -6 -57z"/>
<path d="M2560 3345 l0 -175 -435 0 -435 0 0 -23 c0 -27 18 -222 26 -284 l5
-43 420 0 419 0 0 -175 0 -175 -405 0 c-223 0 -405 -3 -405 -7 0 -5 7 -80 15
-168 8 -88 15 -163 15 -167 0 -5 176 -8 390 -8 l390 0 0 -279 0 -280 -67 19
c-38 10 -122 33 -188 50 -66 18 -123 35 -127 39 -5 4 -13 66 -20 139 l-11 132
-174 0 -173 0 1 -32 c0 -18 10 -140 22 -272 l22 -238 320 -89 c176 -49 337
-94 358 -99 l37 -11 0 -180 c0 -167 1 -180 18 -175 9 3 215 60 457 126 242 67
441 123 443 125 1 1 49 530 107 1176 57 646 106 1191 109 1212 l4 37 -569 0
-569 0 0 -175z m870 -187 c-3 -92 -159 -1751 -166 -1757 -5 -5 -157 -50 -339
-100 -181 -51 -338 -94 -348 -97 -16 -5 -17 6 -15 177 l3 182 189 51 c104 29
191 56 192 61 2 6 10 93 19 195 8 102 18 200 21 218 l5 32 -216 0 -215 0 0
175 0 175 230 0 230 0 0 23 c0 12 7 87 15 167 8 80 15 148 15 153 0 4 -110 7
-245 7 l-245 0 0 175 0 175 435 0 c342 0 435 -3 435 -12z"/>
</g>
</svg>
