<?xml version="1.0" standalone="no"?>
<!DOCTYPE svg PUBLIC "-//W3C//DTD SVG 20010904//EN"
 "http://www.w3.org/TR/2001/REC-SVG-20010904/DTD/svg10.dtd">
<svg version="1.0" xmlns="http://www.w3.org/2000/svg"
 width="512.000000pt" height="512.000000pt" viewBox="0 0 512.000000 512.000000"
 preserveAspectRatio="xMidYMid meet">

<g transform="translate(0.000000,512.000000) scale(0.100000,-0.100000)"
fill="#000000" stroke="none">
<path d="M1006 3750 c-162 -28 -304 -171 -336 -340 -6 -33 -10 -386 -10 -939
0 -769 2 -895 15 -946 39 -147 169 -265 312 -281 l48 -6 -3 1045 c-1 674 1
1054 8 1071 23 61 21 63 785 -580 396 -333 725 -607 731 -610 7 -3 337 268
735 602 398 334 731 609 741 612 50 13 48 58 48 -1084 0 -585 1 -1064 3 -1064
2 0 30 5 63 11 123 22 230 105 282 217 l27 57 0 966 0 965 -38 76 c-92 187
-299 279 -494 220 -38 -12 -86 -33 -106 -46 -20 -14 -311 -262 -647 -551 -547
-471 -612 -524 -629 -513 -10 7 -287 245 -615 528 -329 283 -614 525 -634 538
-72 44 -198 67 -286 52z"/>
</g>
</svg>
