<?xml version="1.0" standalone="no"?>
<!DOCTYPE svg PUBLIC "-//W3C//DTD SVG 20010904//EN"
 "http://www.w3.org/TR/2001/REC-SVG-20010904/DTD/svg10.dtd">
<svg version="1.0" xmlns="http://www.w3.org/2000/svg"
 width="256.000000pt" height="256.000000pt" viewBox="0 0 256.000000 256.000000"
 preserveAspectRatio="xMidYMid meet">

<g transform="translate(0.000000,256.000000) scale(0.100000,-0.100000)"
fill="#000000" stroke="none">
<path d="M4 2518 c3 -24 51 -549 107 -1168 56 -619 104 -1128 108 -1132 3 -3
243 -54 533 -112 l528 -105 527 105 c291 58 531 109 534 112 4 4 52 513 108
1132 56 619 104 1144 107 1168 l6 42 -1282 0 -1282 0 6 -42z m2317 -173 c5 -4
-169 -1947 -175 -1952 -2 -2 -197 -42 -435 -90 l-431 -86 -431 86 c-238 48
-433 88 -435 90 -6 5 -180 1948 -175 1952 6 6 2076 6 2082 0z"/>
<path d="M960 1424 l0 -706 -32 6 c-18 4 -50 9 -71 13 -48 7 -54 21 -62 136
l-7 87 -107 0 -107 0 18 -191 c9 -105 19 -194 22 -197 5 -4 530 -112 548 -112
4 0 8 376 8 835 l0 835 -105 0 -105 0 0 -706z"/>
<path d="M1390 1650 l0 -480 201 0 202 0 -6 -52 c-3 -29 -11 -116 -17 -193 -6
-77 -15 -149 -19 -160 -7 -17 -35 -26 -185 -55 l-176 -34 0 -108 c0 -59 4
-108 8 -108 18 0 543 108 548 112 5 6 74 731 74 786 l0 32 -210 0 -210 0 0
265 0 265 234 0 c215 0 235 1 240 18 2 9 7 56 11 105 l7 87 -351 0 -351 0 0
-480z"/>
</g>
</svg>
