<?xml version="1.0" standalone="no"?>
<!DOCTYPE svg PUBLIC "-//W3C//DTD SVG 20010904//EN"
 "http://www.w3.org/TR/2001/REC-SVG-20010904/DTD/svg10.dtd">
<svg version="1.0" xmlns="http://www.w3.org/2000/svg"
 width="256.000000pt" height="256.000000pt" viewBox="0 0 256.000000 256.000000"
 preserveAspectRatio="xMidYMid meet">

<g transform="translate(0.000000,256.000000) scale(0.100000,-0.100000)"
fill="#000000" stroke="none">
<path d="M1099 2310 c-226 -38 -437 -148 -604 -315 -295 -294 -397 -720 -269
-1126 100 -317 355 -580 677 -699 147 -54 318 -75 484 -59 256 24 475 125 665
307 211 203 324 458 335 752 9 252 -47 456 -185 665 -162 243 -450 428 -742
475 -74 11 -292 11 -361 0z m-169 -366 c0 -34 1 -35 33 -32 28 3 32 7 35 36 3
29 6 32 38 32 l35 0 -3 -102 -3 -103 -32 -3 c-32 -3 -33 -2 -33 32 0 34 -2 36
-35 36 -33 0 -35 -2 -35 -35 0 -33 -2 -35 -35 -35 l-35 0 0 105 0 105 35 0
c33 0 35 -2 35 -36z m360 1 c0 -32 -2 -35 -30 -35 l-30 0 0 -70 0 -70 -35 0
-35 0 0 70 0 70 -30 0 c-28 0 -30 3 -30 35 l0 35 95 0 95 0 0 -35z m123 5 c10
-16 21 -30 25 -30 4 0 16 14 25 30 15 25 24 30 58 30 l40 0 -3 -102 -3 -103
-32 -3 -32 -3 -3 53 -3 53 -20 -32 c-10 -18 -22 -33 -26 -33 -4 0 -16 15 -28
33 l-21 32 0 -52 0 -53 -35 0 -35 0 0 105 0 105 38 0 c31 0 41 -5 55 -30z
m247 -40 l0 -70 50 0 50 0 0 -35 0 -35 -85 0 -85 0 0 105 0 105 35 0 35 0 0
-70z m200 -247 c-2 -79 -100 -1097 -106 -1103 -5 -4 -107 -35 -226 -67 l-217
-60 -220 61 c-121 34 -222 64 -225 67 -3 3 -26 234 -51 515 -24 280 -47 530
-50 557 l-6 47 551 0 c517 0 550 -1 550 -17z"/>
<path d="M970 1438 c0 -7 7 -100 17 -205 l17 -193 238 0 239 0 -6 -82 c-4 -46
-8 -88 -10 -94 -1 -5 -37 -19 -78 -29 -74 -18 -77 -18 -151 0 -81 20 -86 25
-86 98 l0 37 -70 0 -71 0 7 -77 c3 -43 9 -93 13 -112 l6 -34 138 -38 138 -37
132 35 c73 20 137 41 143 49 6 7 16 82 23 166 6 84 15 174 18 201 l6 47 -250
0 -250 0 -7 38 c-3 20 -6 54 -6 74 l0 38 263 2 262 3 5 63 5 62 -342 0 c-268
0 -343 -3 -343 -12z"/>
</g>
</svg>
